<?xml version="1.0" encoding="UTF-8" standalone="no"?>
<svg width="92px" height="92px" viewBox="0 0 92 92" version="1.1" xmlns="http://www.w3.org/2000/svg" xmlns:xlink="http://www.w3.org/1999/xlink" xmlns:sketch="http://www.bohemiancoding.com/sketch/ns">
    <!-- Generator: Sketch 3.4.4 (17249) - http://www.bohemiancoding.com/sketch -->
    <title>Icon Settings</title>
    <desc>Created with Sketch.</desc>
    <defs>
        <path id="path-1" d="M0,0.1602237 L91.0629327,0.1602237 L91.0629327,91.2520325 L0,91.2520325 L0,0.1602237 Z"></path>
    </defs>
    <g id="STA---Prod-Dev-Engineers" stroke="none" stroke-width="1" fill="none" fill-rule="evenodd" sketch:type="MSPage">
        <g id="05" sketch:type="MSArtboardGroup" transform="translate(-63.000000, -223.000000)">
            <g id="Menu" sketch:type="MSLayerGroup" transform="translate(0.000000, -378.000000)">
                <g id="Icon-Settings" transform="translate(63.000000, 601.000000)">
                    <mask id="mask-2" sketch:name="Clip 2" fill="white">
                        <use xlink:href="#path-1"></use>
                    </mask>
                    <g id="Clip-2"></g>
                    <path d="M52.4306277,38.7931951 C50.6780719,37.0106526 48.2336009,35.9189147 45.5314664,35.9189147 C42.8293319,35.9189147 40.3859714,37.0106526 38.6034289,38.7931951 C36.8508731,40.5468615 35.7580246,43.0179874 35.7580246,45.6923564 C35.7580246,48.3933803 36.8508731,50.8378514 38.6034289,52.6203939 C40.3859714,54.3718391 42.8293319,55.4646876 45.5314664,55.4646876 C48.2336009,55.4646876 50.6780719,54.3718391 52.4306277,52.6203939 C54.2131702,50.8378514 55.3049081,48.3933803 55.3049081,45.6923564 C55.3049081,43.0179874 54.2131702,40.5468615 52.4306277,38.7931951 L52.4306277,38.7931951 Z M45.5314664,29.9693321 C49.871763,29.9693321 53.8100158,31.7218879 56.6554201,34.5684028 C59.501935,37.4126964 61.2844775,41.3520598 61.2844775,45.6923564 C61.2844775,50.0615291 59.501935,53.9986713 56.6554201,56.8451862 C53.8100158,59.6905905 49.871763,61.4442569 45.5314664,61.4442569 C41.1911697,61.4442569 37.252917,59.6905905 34.4075127,56.8451862 C31.5332323,53.9986713 29.7795659,50.0615291 29.7795659,45.6923564 C29.7795659,41.3520598 31.5332323,37.4126964 34.4075127,34.5684028 C37.252917,31.7218879 41.1911697,29.9693321 45.5314664,29.9693321 L45.5314664,29.9693321 Z M55.3626603,17.2927339 C54.816236,17.1194774 54.2409357,16.9473316 53.6367593,16.7751857 L51.5965533,16.1998854 L51.4532836,14.1019273 L50.9646115,6.91511574 L50.9646115,6.74408051 C50.9646115,6.57082405 50.9068593,6.42755427 50.7924656,6.31093934 C50.6780719,6.19765627 50.5325809,6.13990411 50.3604351,6.13990411 L40.7024977,6.13990411 C40.5303518,6.13990411 40.3859714,6.19765627 40.2715777,6.31093934 C40.1849495,6.39756758 40.0994319,6.54083735 40.0994319,6.71409382 L39.6107598,14.1019273 L39.4663794,16.1998854 L37.4250628,16.7751857 C36.9086253,16.9184555 36.333325,17.0917119 35.7013831,17.32161 L35.7013831,17.2927339 C35.1549589,17.4937558 34.6085346,17.6947777 34.0343449,17.9535518 C33.5445622,18.124587 32.998138,18.3844717 32.3961828,18.700998 C31.7342542,19.0175242 31.1889406,19.2751877 30.7857862,19.5050857 L28.9454915,20.5390714 L27.3650815,19.160794 L21.9896886,14.4473296 L21.8175427,14.3318253 L21.8175427,14.3029492 L21.8453082,14.3029492 C21.7031491,14.1874449 21.5587687,14.1308034 21.3855122,14.1308034 C21.243353,14.1308034 21.0700966,14.1874449 20.9545923,14.3029492 L20.9545923,14.3318253 L20.9545923,14.3029492 L14.1420591,21.1432478 C14.0276654,21.2587521 13.9688027,21.4020219 13.9688027,21.5464023 C13.9688027,21.6907827 13.9987894,21.8618179 14.1142937,21.9773222 L18.9999039,27.5537371 L20.3804026,29.1352576 L19.3453062,30.9744417 C19.1154082,31.3764855 18.8288687,31.9229098 18.5112318,32.5848383 C18.2246923,33.130152 17.9947943,33.6765762 17.7648963,34.2230004 C17.5061222,34.8260662 17.3051003,35.4013665 17.1318438,35.8900386 C16.9308219,36.5230911 16.7298,37.0972808 16.5854196,37.5859529 L16.0389953,39.6272695 L13.9121611,39.7705392 L6.75533629,40.2592113 L6.55320374,40.2592113 C6.40993397,40.2592113 6.23778813,40.3169635 6.12339443,40.4602333 C6.0367662,40.5468615 5.95013797,40.6901313 5.95013797,40.8922638 L5.95013797,50.5213252 C5.95013797,50.693471 6.00789012,50.8378514 6.12339443,50.9522451 C6.20891205,51.0677494 6.35329244,51.1255016 6.52543829,51.1255016 L13.9121611,51.6419391 L16.0389953,51.7863195 L16.5854196,53.8265254 C16.758676,54.4307018 16.959698,55.0048915 17.1318438,55.5224397 C17.3051003,56.068864 17.5349983,56.6152882 17.7648963,57.1894779 C17.9947943,57.7070261 18.2246923,58.2534503 18.5112318,58.8287506 C18.8288687,59.4895686 19.1154082,60.0348822 19.3453062,60.436926 L20.3804026,62.2783313 L18.9999039,63.8576306 L14.2575634,69.2630103 L14.1420591,69.4062801 C14.0276654,69.5206738 13.9688027,69.6939302 13.9688027,69.8383106 C13.9688027,70.0093458 14.0276654,70.1537262 14.1420591,70.2692305 L20.9545923,77.0806531 L20.984579,77.0806531 C21.0700966,77.197268 21.2133663,77.2527989 21.3577467,77.2827856 C21.5298926,77.2827856 21.6731624,77.2250335 21.787556,77.1106398 L27.3650815,72.2516844 L28.9454915,70.8434203 L30.7857862,71.8785166 C31.1889406,72.1084146 31.7342542,72.3949541 32.3961828,72.7114804 C32.998138,73.0280066 33.5445622,73.2579046 34.0343449,73.4589265 C34.6651762,73.7177006 35.212711,73.9487092 35.7013831,74.091979 C36.333325,74.321877 36.9086253,74.4940229 37.4250628,74.6384033 L39.4663794,75.212593 L39.6107598,77.3116617 L40.0694452,84.4973626 L40.0694452,84.6706191 C40.0694452,84.8416543 40.1560734,84.9860347 40.2715777,85.1004284 C40.3859714,85.2159327 40.5303518,85.2736848 40.7024977,85.2736848 L50.3604351,85.2736848 C50.5048155,85.2736848 50.6780719,85.2159327 50.7924656,85.1004284 C50.8779832,85.0138001 50.9646115,84.8705304 50.9646115,84.6983845 L51.4532836,77.3116617 L51.5965533,75.212593 L53.6367593,74.6384033 C54.1842942,74.4662574 54.7296078,74.321877 55.276032,74.1208551 C55.7647041,73.9487092 56.3111284,73.7465767 56.8575526,73.5166787 L56.9430702,73.4878026 L57.0296984,73.4589265 C57.5472466,73.2579046 58.0936709,72.9991305 58.6678606,72.7114804 C59.3286785,72.3949541 59.8473373,72.1084146 60.2782572,71.8785166 L62.0885652,70.8434203 L63.6978512,72.2516844 L69.0743548,76.96737 L69.2176245,77.0806531 C69.3608943,77.2250335 69.5041641,77.2827856 69.6485445,77.2827856 C69.8206903,77.2827856 69.9928362,77.2250335 70.1083405,77.1106398 L70.080575,77.0806531 L70.1083405,77.0806531 L70.1083405,77.1106398 L76.9208736,70.2692305 C77.0363779,70.1537262 77.0930195,70.0093458 77.0930195,69.8660761 C77.0930195,69.7228063 77.0363779,69.5495498 76.9497497,69.4362668 L72.0630288,63.8576306 L70.6836408,62.2783313 L71.7187371,60.436926 C71.9486351,60.0348822 72.2362853,59.4895686 72.5517009,58.8287506 C72.8115856,58.2534503 73.0692491,57.7070261 73.2991471,57.1894779 C73.5568105,56.5864121 73.7589431,56.0111118 73.9310889,55.5224397 C74.1032348,55.0048915 74.2764913,54.4307018 74.4486371,53.8265254 L75.0239374,51.7863195 L77.1230062,51.6419391 L84.3087071,51.1543776 L84.4797423,51.1543776 C84.6541094,51.1543776 84.7962685,51.0677494 84.9406489,50.9522451 C85.0261665,50.8667275 85.0839187,50.693471 85.0839187,50.5213252 L85.1127948,50.5213252 L85.1127948,40.8922638 C85.1127948,40.7190073 85.0261665,40.5757376 84.9406489,40.4602333 C84.8262552,40.3458396 84.6818748,40.2880874 84.509729,40.2592113 L77.1230062,39.7705392 L75.0239374,39.6272695 L74.4486371,37.5859529 C74.2764913,36.9828871 74.1032348,36.4064762 73.9310889,35.8900386 C73.7589431,35.4013665 73.5568105,34.8260662 73.2991471,34.2230004 L73.2991471,34.1941244 C73.0970145,33.7343284 72.8393511,33.1890147 72.5517009,32.5848383 C72.2362853,31.9229098 71.9486351,31.3764855 71.7187371,30.9744417 L70.6836408,29.1352576 L72.0630288,27.5537371 L76.7764932,22.1505787 L76.9208736,22.0061983 C77.0363779,21.8918046 77.0930195,21.7185481 77.0930195,21.5752783 C77.0930195,21.4020219 77.0363779,21.2587521 76.9208736,21.1432478 L70.1083405,14.3318253 L70.080575,14.3029492 C69.9650707,14.216321 69.8206903,14.1585688 69.6774205,14.1308034 C69.5330402,14.1308034 69.3897704,14.1874449 69.2465006,14.3029492 L63.6700857,19.160794 L62.0885652,20.5390714 L60.2782572,19.5050857 C59.8473373,19.2751877 59.3286785,19.0175242 58.6678606,18.700998 C58.0348081,18.3844717 57.4894945,18.124587 57.0296984,17.9535518 C56.4543981,17.6947777 55.8790978,17.4937558 55.3626603,17.2927339 L55.3626603,17.2927339 Z M57.2595965,11.6874429 L57.2884725,11.6874429 C58.0070426,11.9173409 58.6678606,12.176115 59.300913,12.4348891 C60.0483592,12.7514153 60.7091771,13.0390655 61.2844775,13.3244944 L61.3133535,13.3244944 L65.3371239,9.81827219 C66.6298837,8.66878216 68.2680458,8.151234 69.8784425,8.18011008 C71.4888391,8.23786223 73.0692491,8.89868017 74.3053673,10.1059223 L81.1179005,16.9184555 L81.1456659,16.9184555 C82.4117709,18.2123259 83.0725888,19.9082402 83.0725888,21.5752783 C83.0725888,23.2145511 82.4395363,24.8804786 81.174542,26.1743491 L81.1456659,26.2309906 L77.8993284,29.940456 L77.8993284,29.9693321 C78.1858679,30.5146457 78.4735181,31.1754636 78.7900443,31.9229098 C79.0477078,32.5259756 79.2776058,33.1890147 79.565256,33.9353503 L79.565256,33.9642264 L84.9117729,34.3085181 C86.6365632,34.4240224 88.1603316,35.2292207 89.2820562,36.4064762 C90.373794,37.5859529 91.0634881,39.1674735 91.034612,40.8922638 L91.0634881,50.5213252 C91.0634881,52.3316331 90.344918,53.9697952 89.1376758,55.1481613 C88.0159512,56.298762 86.4644173,57.0462081 84.7096403,57.1028497 L79.565256,57.4493626 L79.565256,57.4771281 C79.2776058,58.2256848 79.0477078,58.8853922 78.7900443,59.4895686 C78.5023942,60.1792626 78.214744,60.8400805 77.8993284,61.4442569 L77.8993284,61.473133 L81.4344267,65.5257795 C82.5550407,66.8185392 83.1014649,68.457812 83.0437127,70.0393325 C82.9859606,71.6774947 82.3540187,73.2579046 81.1179005,74.4662574 L74.3053673,81.306556 C73.0114969,82.6004264 71.3444587,83.2323683 69.6485445,83.2323683 C67.9815063,83.2323683 66.285592,82.6004264 64.9928322,81.306556 L65.0205977,81.306556 L61.3133535,78.0591079 L61.2844775,78.0868733 C60.651425,78.3756341 60.0194831,78.6910497 59.300913,78.9786999 L59.272037,78.9786999 L59.1576433,79.0064653 L59.0987805,79.0653281 C58.5245908,79.2952261 57.9204144,79.5251241 57.2595965,79.7250354 L56.9141941,85.1004284 C56.7998004,86.8263293 56.0234782,88.3500978 54.8451121,89.4418356 C53.666746,90.5624496 52.0563493,91.2232675 50.3604351,91.2232675 L40.7024977,91.2232675 L40.7024977,91.2521436 C38.9199552,91.2521436 37.2817931,90.505808 36.0745509,89.3263313 C34.9250609,88.1779519 34.2064908,86.6253074 34.1487386,84.9005171 L34.1198625,84.9005171 L33.7744602,79.7550221 L33.7744602,79.7250354 C32.998138,79.467372 32.33732,79.2085979 31.7631303,78.9786999 C31.0156842,78.6621736 30.3548662,78.3756341 29.7795659,78.0868733 L29.7518004,78.0591079 L25.7269194,81.5942062 C24.4041729,82.7436962 22.7948869,83.2612443 21.1844903,83.2046028 C19.5752042,83.1746161 17.9659182,82.5149088 16.758676,81.306556 L9.91726681,74.4940229 C8.6233964,73.2001525 7.99145455,71.5042382 7.99145455,69.8383106 C7.99145455,68.1412857 8.6233964,66.4742475 9.91726681,65.1803771 L13.164715,61.473133 L13.1369495,61.4442569 C12.8481887,60.8400805 12.5616492,60.1792626 12.273999,59.4895686 L12.273999,59.4606925 C12.0152249,58.8576267 11.7564508,58.1668221 11.4976768,57.4493626 L6.15115989,57.0750842 C4.42636955,56.9595799 2.87483567,56.1843683 1.78198719,55.0048915 C0.690249322,53.8265254 -0.000555309189,52.2461155 -0.000555309189,50.5213252 L-0.000555309189,40.8922638 C-0.000555309189,39.0808452 0.718014782,37.4426831 1.8974915,36.2343303 C3.04698152,35.1137164 4.5985154,34.3662702 6.35329244,34.3085181 L11.4976768,33.9642264 L11.4976768,33.9353503 C11.7564508,33.1890147 12.0152249,32.4982101 12.273999,31.9229098 C12.5616492,31.2332158 12.8481887,30.5712872 13.1369495,29.9693321 L13.164715,29.9115799 L9.62850604,25.8866989 C8.50900271,24.5928285 7.96257847,22.9546664 8.01922,21.3731458 C8.07697216,19.7360943 8.71002464,18.1545737 9.91726681,16.9473316 L16.7298,10.1059223 L16.758676,10.1059223 C18.0525464,8.81205193 19.7195846,8.151234 21.3855122,8.151234 C23.053661,8.151234 24.7206992,8.78317586 25.9856935,10.0481702 L26.0434457,10.1059223 L29.7518004,13.3244944 L29.7795659,13.3244944 C30.3548662,13.0390655 31.0156842,12.7514153 31.7631303,12.4348891 C32.3961828,12.176115 33.0570007,11.9173409 33.7744602,11.6874429 L33.7744602,11.6585668 L34.1487386,6.31093934 C34.2642429,4.58725962 35.0405652,3.0634912 36.2178206,1.97064272 C37.3972974,0.850028776 38.9777073,0.18921084 40.7024977,0.18921084 L50.3604351,0.18921084 L50.3604351,0.160334762 C52.1429776,0.160334762 53.7811397,0.90889155 54.9894925,2.08614703 C56.1378719,3.20676098 56.8575526,4.78828155 56.9141941,6.51418251 L57.2595965,11.6874429 Z" id="Fill-1" fill="#0C5738" sketch:type="MSShapeGroup" mask="url(#mask-2)"></path>
                </g>
            </g>
        </g>
    </g>
</svg>